<?xml version="1.0" standalone="no"?><!DOCTYPE svg PUBLIC "-//W3C//DTD SVG 1.1//EN" "http://www.w3.org/Graphics/SVG/1.1/DTD/svg11.dtd"><svg class="icon" width="200px" height="200.00px" viewBox="0 0 1024 1024" version="1.1" xmlns="http://www.w3.org/2000/svg"><path d="M256 149.333333V106.666667h85.333333v42.666666h341.333334V106.666667h85.333333v42.666666h85.333333a64 64 0 0 1 64 64v640a64 64 0 0 1-64 64H170.666667a64 64 0 0 1-64-64V213.333333a64 64 0 0 1 64-64h85.333333z m0 85.333334H192v192h640v-192h-64v42.666666h-85.333333v-42.666666H341.333333v42.666666h-85.333333v-42.666666z m576 277.333333H192v320h640V512z" /></svg>