<?xml version="1.0" standalone="no"?><!DOCTYPE svg PUBLIC "-//W3C//DTD SVG 1.1//EN" "http://www.w3.org/Graphics/SVG/1.1/DTD/svg11.dtd"><svg class="icon" width="200px" height="200.00px" viewBox="0 0 1024 1024" version="1.1" xmlns="http://www.w3.org/2000/svg"><path d="M593.045333 104.32a64 64 0 0 1 90.496 0l119.168 119.168a64 64 0 0 1 0 90.496l-436.266666 436.266667a64 64 0 0 1-37.802667 18.325333l-129.002667 15.104a64 64 0 0 1-71.253333-68.394667l10.176-134.613333a64 64 0 0 1 18.56-40.426667L593.066667 104.32z m-31.829333 152.490667l89.002667 89.002666 77.056-77.077333-88.981334-88.981333-77.077333 77.056z m28.650667 149.333333l-88.981334-88.981333L223.061333 594.986667l-7.637333 100.906666 95.914667-11.221333L589.866667 406.144zM896 938.666667H128v-85.333334h768v85.333334z" /></svg>