<?xml version="1.0" standalone="no"?><!DOCTYPE svg PUBLIC "-//W3C//DTD SVG 1.1//EN" "http://www.w3.org/Graphics/SVG/1.1/DTD/svg11.dtd"><svg class="icon" width="200px" height="200.00px" viewBox="0 0 1024 1024" version="1.1" xmlns="http://www.w3.org/2000/svg"><path d="M149.333333 128a64 64 0 0 0-64 64v640a64 64 0 0 0 64 64h725.333334a64 64 0 0 0 64-64V192a64 64 0 0 0-64-64H149.333333z m21.333334 682.666667V213.333333h682.666666v597.333334H170.666667z m88.277333-483.072L512 502.762667l253.056-175.168 48.554667 70.144-265.173334 183.594666a64 64 0 0 1-72.874666 0l-265.173334-183.594666 48.554667-70.144z" /></svg>