<?xml version="1.0" standalone="no"?><!DOCTYPE svg PUBLIC "-//W3C//DTD SVG 1.1//EN" "http://www.w3.org/Graphics/SVG/1.1/DTD/svg11.dtd"><svg class="icon" width="200px" height="200.00px" viewBox="0 0 1024 1024" version="1.1" xmlns="http://www.w3.org/2000/svg"><path d="M89.365333 453.184H38.037333L128 589.44l89.962667-136.256h-42.24C203.584 292.693333 343.552 170.666667 512 170.666667c188.522667 0 341.333333 152.810667 341.333333 341.333333s-152.810667 341.333333-341.333333 341.333333c-118.677333 0-223.253333-60.544-284.48-152.618666l-71.04 47.253333C232.853333 862.826667 363.52 938.666667 512 938.666667c235.648 0 426.666667-191.018667 426.666667-426.666667S747.648 85.333333 512 85.333333C296.32 85.333333 118.016 245.376 89.365333 453.184zM533.333333 512v-149.333333h-85.333333v234.666666h234.666667v-85.333333h-149.333334z" /></svg>