<?xml version="1.0" standalone="no"?><!DOCTYPE svg PUBLIC "-//W3C//DTD SVG 1.1//EN" "http://www.w3.org/Graphics/SVG/1.1/DTD/svg11.dtd"><svg class="icon" width="200px" height="200.00px" viewBox="0 0 1024 1024" version="1.1" xmlns="http://www.w3.org/2000/svg"><path d="M225.386667 677.930667a85.333333 85.333333 0 1 0 120.682666 120.682666l181.013334-181.013333a85.333333 85.333333 0 0 0 0-120.682667l60.330666-60.330666a170.666667 170.666667 0 0 1 0 241.344l-181.013333 181.034666A170.666667 170.666667 0 0 1 165.056 617.6l105.6-105.6 60.330667 60.330667-105.6 105.6z m211.2-90.496a170.666667 170.666667 0 0 1 0-241.365334l181.013333-181.013333A170.666667 170.666667 0 0 1 858.965333 406.4L753.344 512l-60.352-60.330667 105.6-105.6a85.333333 85.333333 0 0 0-120.682667-120.682666l-181.013333 181.013333a85.333333 85.333333 0 0 0 0 120.682667l-60.330667 60.352z" /></svg>