<?xml version="1.0" standalone="no"?><!DOCTYPE svg PUBLIC "-//W3C//DTD SVG 1.1//EN" "http://www.w3.org/Graphics/SVG/1.1/DTD/svg11.dtd">
<svg class="icon"
     width="200px"
     height="200.00px"
     viewBox="0 0 1024 1024"
     version="1.1"
     xmlns="http://www.w3.org/2000/svg">
    <path fill="#000000" d="M234.666667 435.306667C234.666667 276.288 359.893333 149.333333 512 149.333333s277.333333 126.954667 277.333333 285.973334c0 34.346667-15.68 79.36-44.586666 131.093333-28.309333 50.666667-66.602667 103.082667-105.770667 150.976A1975.829333 1975.829333 0 0 1 512 857.6a1975.829333 1975.829333 0 0 1-126.976-140.202667c-39.168-47.914667-77.461333-100.330667-105.770667-150.997333-28.906667-51.733333-44.586667-96.746667-44.586666-131.093333z m248.106666 513.109333L512 917.333333l29.226667 31.082667L512 975.872l-29.226667-27.456z m0 0L512 917.333333l29.226667 31.082667 0.085333-0.064 0.213333-0.213333 0.746667-0.704 2.837333-2.709334a1977.045333 1977.045333 0 0 0 47.573334-47.509333 2062.570667 2062.570667 0 0 0 112.341333-125.824c40.832-49.92 82.538667-106.666667 114.218667-163.370667C850.346667 552.32 874.666667 491.733333 874.666667 435.306667 874.666667 231.317333 713.365333 64 512 64S149.333333 231.317333 149.333333 435.306667c0 56.426667 24.32 117.034667 55.424 172.714666 31.68 56.725333 73.386667 113.450667 114.218667 163.370667a2062.570667 2062.570667 0 0 0 159.914667 173.333333l1.28 1.216 1.557333 1.493334 0.746667 0.704 0.213333 0.213333 0.085333 0.064zM448 405.333333a64 64 0 1 1 128 0 64 64 0 0 1-128 0z m64-149.333333a149.333333 149.333333 0 1 0 0 298.666667 149.333333 149.333333 0 0 0 0-298.666667z"/>
</svg>