<?xml version="1.0" standalone="no"?><!DOCTYPE svg PUBLIC "-//W3C//DTD SVG 1.1//EN" "http://www.w3.org/Graphics/SVG/1.1/DTD/svg11.dtd"><svg class="icon" width="200px" height="200.00px" viewBox="0 0 1024 1024" version="1.1" xmlns="http://www.w3.org/2000/svg"><path d="M298.666667 309.333333c0-117.824 95.509333-213.333333 213.333333-213.333333s213.333333 95.509333 213.333333 213.333333v21.333334h106.666667a85.333333 85.333333 0 0 1 85.333333 85.333333v426.666667a85.333333 85.333333 0 0 1-85.333333 85.333333H192a85.333333 85.333333 0 0 1-85.333333-85.333333v-426.666667a85.333333 85.333333 0 0 1 85.333333-85.333333h106.666667v-21.333334z m85.333333 21.333334h256v-21.333334a128 128 0 0 0-256 0v21.333334z m-192 85.333333v426.666667h640v-426.666667H192z m320 170.666667a42.666667 42.666667 0 1 0 0 85.333333 42.666667 42.666667 0 0 0 0-85.333333z m-128 42.666666a128 128 0 1 1 256 0 128 128 0 0 1-256 0z" /></svg>