<?xml version="1.0" standalone="no"?><!DOCTYPE svg PUBLIC "-//W3C//DTD SVG 1.1//EN" "http://www.w3.org/Graphics/SVG/1.1/DTD/svg11.dtd"><svg class="icon" width="200px" height="200.00px" viewBox="0 0 1024 1024" version="1.1" xmlns="http://www.w3.org/2000/svg"><path d="M554.666667 64v109.312C723.050667 194.304 853.333333 337.92 853.333333 512c0 92.992-37.248 177.365333-97.536 238.890667l-60.928-59.733334A255.04 255.04 0 0 0 768 512c0-126.848-92.266667-232.149333-213.333333-252.458667V362.666667l-199.104-149.333334L554.666667 64zM329.130667 332.842667A255.04 255.04 0 0 0 256 512c0 126.848 92.266667 232.149333 213.333333 252.458667V640l199.104 149.333333L469.333333 938.666667v-87.978667C300.949333 829.696 170.666667 686.08 170.666667 512c0-92.992 37.248-177.365333 97.536-238.890667l60.949333 59.733334z" /></svg>