<?xml version="1.0" standalone="no"?><!DOCTYPE svg PUBLIC "-//W3C//DTD SVG 1.1//EN" "http://www.w3.org/Graphics/SVG/1.1/DTD/svg11.dtd"><svg class="icon" width="200px" height="200.00px" viewBox="0 0 1024 1024" version="1.1" xmlns="http://www.w3.org/2000/svg"><path d="M887.957333 287.957333l-162.581333-162.581333a63.744 63.744 0 0 0-26.709333-16V106.666667H138.666667C120.96 106.666667 106.666667 120.96 106.666667 138.666667V874.666667c0 17.706667 14.293333 32 32 32H874.666667c17.706667 0 32-14.293333 32-32V333.162667a63.786667 63.786667 0 0 0-18.709334-45.205334zM378.666667 178.666667h256v104h-256V178.666667z m456 656H178.666667V178.666667h136v136c0 17.706667 14.293333 32 32 32h320c17.706667 0 32-14.293333 32-32V200.469333l136 136v498.197334zM506.666667 436.672a144.042667 144.042667 0 0 0-144 144 144.042667 144.042667 0 0 0 144 144 144.042667 144.042667 0 0 0 144-144 144.042667 144.042667 0 0 0-144-144z m0 224a79.978667 79.978667 0 0 1-80-80 79.978667 79.978667 0 0 1 80-80 79.978667 79.978667 0 0 1 80 80 79.978667 79.978667 0 0 1-80 80z" /></svg>