<?xml version="1.0" standalone="no"?><!DOCTYPE svg PUBLIC "-//W3C//DTD SVG 1.1//EN" "http://www.w3.org/Graphics/SVG/1.1/DTD/svg11.dtd"><svg class="icon" width="200px" height="200.00px" viewBox="0 0 1024 1024" version="1.1" xmlns="http://www.w3.org/2000/svg"><path d="M675.349333 252.970667c-116.650667-116.629333-305.749333-116.629333-422.4 0-116.629333 116.629333-116.629333 305.749333 0 422.378666 116.650667 116.629333 305.749333 116.629333 422.4 0 116.629333-116.629333 116.629333-305.749333 0-422.378666zM192.618667 192.64C342.613333 42.666667 585.728 42.666667 735.68 192.64c139.754667 139.733333 149.269333 360.448 28.522667 511.210667l152.490666 152.533333-60.330666 60.330667-152.512-152.533334c-150.762667 120.768-371.477333 111.274667-511.232-28.501333C42.666667 585.706667 42.666667 342.613333 192.64 192.64z" /></svg>