<?xml version="1.0" standalone="no"?><!DOCTYPE svg PUBLIC "-//W3C//DTD SVG 1.1//EN" "http://www.w3.org/Graphics/SVG/1.1/DTD/svg11.dtd"><svg class="icon" width="200px" height="200.00px" viewBox="0 0 1024 1024" version="1.1" xmlns="http://www.w3.org/2000/svg"><path d="M512.085333 67.669333l208.597334 208.597334-60.330667 60.330666-105.6-105.6L554.730667 597.333333h-85.333334V231.018667l-105.578666 105.6-60.330667-60.373334 208.597333-208.576zM256 469.333333h128v-85.333333h-149.333333a64 64 0 0 0-64 64v426.666667a64 64 0 0 0 64 64h554.666666a64 64 0 0 0 64-64V448a64 64 0 0 0-64-64h-149.333333v85.333333h128v384H256V469.333333z" /></svg>