<?xml version="1.0" standalone="no"?><!DOCTYPE svg PUBLIC "-//W3C//DTD SVG 1.1//EN" "http://www.w3.org/Graphics/SVG/1.1/DTD/svg11.dtd"><svg class="icon" width="200px" height="200.00px" viewBox="0 0 1024 1024" version="1.1" xmlns="http://www.w3.org/2000/svg"><path d="M442.837333 128.490667c19.562667-39.637333 76.096-39.637333 95.658667 0l99.626667 201.877333 222.784 32.384c43.733333 6.357333 61.226667 60.117333 29.568 90.965333l-161.216 157.141334 38.058666 221.866666c7.466667 43.584-38.250667 76.8-77.397333 56.234667L490.666667 784.213333l-199.253334 104.746667c-39.146667 20.586667-84.864-12.650667-77.397333-56.213333l38.058667-221.888-161.216-157.141334c-31.637333-30.848-14.186667-84.608 29.568-90.965333l222.784-32.384 99.626666-201.877333zM490.666667 224.426667l-78.378667 158.826666a53.333333 53.333333 0 0 1-40.170667 29.162667l-175.253333 25.472 126.826667 123.626667a53.333333 53.333333 0 0 1 15.338666 47.210666l-29.952 174.549334 156.778667-82.410667a53.333333 53.333333 0 0 1 49.621333 0l156.778667 82.410667-29.952-174.549334a53.333333 53.333333 0 0 1 15.36-47.210666l126.805333-123.626667-175.253333-25.472a53.333333 53.333333 0 0 1-40.170667-29.162667L490.666667 224.405333z" /></svg>