<?xml version="1.0" standalone="no"?><!DOCTYPE svg PUBLIC "-//W3C//DTD SVG 1.1//EN" "http://www.w3.org/Graphics/SVG/1.1/DTD/svg11.dtd"><svg class="icon" width="200px" height="200.00px" viewBox="0 0 1024 1024" version="1.1" xmlns="http://www.w3.org/2000/svg"><path d="M234.666667 170.666667v654.229333l277.333333-147.925333 277.333333 147.925333V170.666667H234.666667zM149.333333 149.333333a64 64 0 0 1 64-64h597.333334a64 64 0 0 1 64 64v739.562667c0 35.413333-37.76 58.069333-69.013334 41.386667L512 773.717333l-293.653333 156.586667C187.093333 946.986667 149.333333 924.330667 149.333333 888.917333V149.333333z m322.048 319.146667l165.930667-165.930667 60.352 60.330667-226.282667 226.282667-135.765333-135.765334 60.352-60.330666 75.413333 75.413333z" /></svg>