<?xml version="1.0" standalone="no"?><!DOCTYPE svg PUBLIC "-//W3C//DTD SVG 1.1//EN" "http://www.w3.org/Graphics/SVG/1.1/DTD/svg11.dtd"><svg class="icon" width="200px" height="200.00px" viewBox="0 0 1024 1024" version="1.1" xmlns="http://www.w3.org/2000/svg"><path d="M285.781333 285.653333c47.722667-47.701333 106.666667-77.162667 168.298667-88.448l-15.36-83.925333a403.669333 403.669333 0 0 0-213.269333 112.042667c-158.293333 158.293333-158.293333 414.933333 0 573.226666l-72.832 72.853334h206.016V665.386667l-72.853334 72.832c-124.970667-124.970667-124.970667-327.573333 0-452.544zM871.466667 152.597333h-206.016v205.994667l72.832-72.832c124.970667 124.970667 124.970667 327.594667 0 452.544a318.314667 318.314667 0 0 1-168.298667 88.469333l15.381333 83.946667a403.648 403.648 0 0 0 213.248-112.064c158.293333-158.293333 158.293333-414.933333 0-573.226667l72.853334-72.832z" /></svg>