<?xml version="1.0" standalone="no"?><!DOCTYPE svg PUBLIC "-//W3C//DTD SVG 1.1//EN" "http://www.w3.org/Graphics/SVG/1.1/DTD/svg11.dtd"><svg class="icon" width="200px" height="200.00px" viewBox="0 0 1024 1024" version="1.1" xmlns="http://www.w3.org/2000/svg"><path d="M512 192a106.666667 106.666667 0 1 0 0 213.333333 106.666667 106.666667 0 0 0 0-213.333333z m-192 106.666667a192 192 0 1 1 384 0 192 192 0 0 1-384 0z m42.666667 320a170.666667 170.666667 0 0 0-170.666667 170.666666v42.666667h341.333333v85.333333H106.666667v-128c0-141.376 114.624-256 256-256h170.666666v85.333334h-170.666666z m362.666666 85.333333v-128h85.333334v128h128v85.333333h-128v128h-85.333334v-128h-128v-85.333333h128z" /></svg>