<?xml version="1.0" standalone="no"?><!DOCTYPE svg PUBLIC "-//W3C//DTD SVG 1.1//EN" "http://www.w3.org/Graphics/SVG/1.1/DTD/svg11.dtd">
<svg class="icon"
     width="200px"
     height="200.00px"
     viewBox="0 0 1024 1024"
     version="1.1"
     xmlns="http://www.w3.org/2000/svg">
    <path fill="#000" d="M384 320a128 128 0 1 1 256 0 128 128 0 0 1-256 0z m128-213.333333c-117.824 0-213.333333 95.509333-213.333333 213.333333s95.509333 213.333333 213.333333 213.333333 213.333333-95.509333 213.333333-213.333333S629.824 106.666667 512 106.666667z m-170.666667 469.333333c-61.397333 0-119.68 18.709333-163.328 55.68C133.674667 669.205333 106.666667 723.797333 106.666667 789.333333v64a64 64 0 0 0 64 64h682.666666a64 64 0 0 0 64-64v-64c0-65.536-27.008-120.128-71.338666-157.653333C802.346667 594.709333 744.064 576 682.666667 576H341.333333zM192 789.333333c0-40.490667 16-71.253333 41.130667-92.522666C258.986667 674.944 296.704 661.333333 341.333333 661.333333h341.333334c44.629333 0 82.368 13.610667 108.202666 35.477334C816 718.08 832 748.842667 832 789.333333v42.666667H192v-42.666667z"/>
</svg>